<?xml version="1.0" encoding="utf-8"?>
<!-- Generator: Adobe Illustrator 19.1.0, SVG Export Plug-In . SVG Version: 6.00 Build 0)  -->
<svg version="1.1" id="Layer_1" xmlns="http://www.w3.org/2000/svg" xmlns:xlink="http://www.w3.org/1999/xlink" x="0px" y="0px"
	 viewBox="0 0 288.7 44.7" style="enable-background:new 0 0 288.7 44.7;" xml:space="preserve">
<style type="text/css">
	.st0{clip-path:url(#SVGID_2_);fill:#231F20;}
</style>
<g>
	<defs>
		<rect id="SVGID_1_" x="3" y="3.1" width="282.8" height="38.2"/>
	</defs>
	<clipPath id="SVGID_2_">
		<use xlink:href="#SVGID_1_"  style="overflow:visible;"/>
	</clipPath>
	<path class="st0" d="M133.1,4.8h-19.1l0,0l-5.8,0h-0.4V12h0.4v0c0.5-1.4,1.5-2.1,3.8-2.2h5.8v25.8c0,2.2-0.3,3.3-1.9,4.3h0v0v0.4
		h9.2v-0.4h0c-1.9-1-1.9-2.1-1.9-4.3V9.8l3.4,0l0,0h2.3c2.3,0,3.3,0.8,3.8,2.1v0h0.4L133.1,4.8L133.1,4.8L133.1,4.8z"/>
	<path class="st0" d="M285.8,4.8L285.8,4.8l-19.1,0v0l-5.8,0v0h-0.4V12h0.4v0c0.5-1.4,1.5-2.1,3.8-2.2h5.8v25.7
		c0,2.2-0.3,3.3-1.9,4.3v0v0.4h9.2v-0.4h0c-1.9-1-1.9-2.1-1.9-4.3V9.8l3.4,0v0h2.3c2.3,0,3.3,0.8,3.8,2.1v0h0.4L285.8,4.8L285.8,4.8
		z"/>
	<path class="st0" d="M28.9,5.2L28.9,5.2c0.4,0,1.5,0.4,1.5,1.2c0,0.7-0.2,1.1-0.4,1.7l-8.3,20.9h0L12.5,7.6
		c-0.1-0.2-0.2-0.4-0.3-0.7c0-0.2-0.1-0.4-0.1-0.6c0-0.8,0.8-1.1,1.2-1.1l0,0h0V4.8H3v0.4h0.1L3,5.2c1.2,0.2,3.2,3.4,4.4,5.9l0.5,1
		c0,0,0,0.1,0,0.1l13.6,28.9h0.1l13.5-30.9c1.1-2.6,3.6-4.7,5-5h0.1V4.8H28.9V5.2z"/>
	<path class="st0" d="M91,19c-3.2-1.4-6.3-2.3-6.3-5.7c0-2.3,2-4.6,4.8-4.7c4.3-0.2,6.4,1.5,9,4l0.4,0.4V4.1h-0.4v0
		c-0.2,0.6-0.6,1.1-1.6,1.1c-1.1,0-3.8-1.3-7.2-1.3c-5.7,0-10.8,3.3-10.8,9.8c0,6.6,5.1,8.7,9.5,10.7c3.2,1.5,6.5,2.8,6.5,6.4
		c0,3.1-2.3,5.3-5.7,5.3c-4,0-7.1-0.9-9.8-4v0L79,31.7v9.7h0.4v0c0.3-1,1.1-1.5,2-1.5c2.1-0.1,3.1,1.3,7.4,1.3
		c6.8,0,12.2-4.1,12.2-10.3C101,23.3,95.5,21,91,19"/>
	<path class="st0" d="M178.4,39.9c-1.2-0.3-2.2-2.5-2.9-5.6L169.3,4h-0.1l-11.7,25.1h0L145.9,4h-0.1l-6.5,31.7
		c-0.6,2.7-1.9,3.8-2.8,4.2h0v0.4h8.9v-0.4c-0.7-0.2-1-1-1-1.4c0-0.4,0.1-1.1,0.1-1.3l3-16.8h0.1l9.5,20.8h0.1l9.8-20.8h0.1
		l2.9,16.4c0.1,0.4,0.1,0.8,0.1,1.5c0,0.8-0.6,1.7-0.9,1.7l0,0h0v0.4h9.2L178.4,39.9L178.4,39.9L178.4,39.9z"/>
	<path class="st0" d="M243.8,5.1L243.8,5.1c1.4,0.8,1.8,1.6,1.9,3v19.4L222.6,3.1h-0.1v32.6c0,2.1-0.3,3.2-1.9,4.2v0.4h9.2v-0.4h0
		c-1.9-1-1.9-2.1-1.9-4.3V16.8l23.1,24.3h0.1v-4l0,0V9.3c0-2.1,0.3-3.2,1.9-4.2V4.7h-9.2V5.1z"/>
	<path class="st0" d="M69.2,32.9c-0.4,1.3-1.4,2.4-3.8,2.4H52.5v-11h12.3v-5.4H52.5v-9h12.1c2.3,0,3.3,0.8,3.8,2.2v0h0.4V4.8h-0.4v0
		l-14,0l0,0h-9.2v0.4v0h0c1.6,0.6,1.9,1.6,1.9,3.6l0,27.7c0,1.9-0.4,2.9-1.9,3.5h0v0v0.4h9.2l0,0h14.9h0.4v-7.5L69.2,32.9L69.2,32.9
		z"/>
	<path class="st0" d="M210.3,32.9c-0.4,1.3-1.4,2.4-3.8,2.4h-12.9v-11h12.3v-5.4h-12.3v-9h12.1c2.3,0,3.3,0.8,3.8,2.2v0h0.4V4.8
		h-0.4v0l-14,0l0,0h-9.2v0.4v0c1.6,0.6,1.9,1.6,1.9,3.6l0,27.7c0,1.9-0.3,2.9-1.9,3.5v0v0.4h9.2l0,0h14.9h0.4v-7.5L210.3,32.9
		L210.3,32.9z"/>
</g>
</svg>
